{
	"asset":{
		"generator":"Khronos glTF Blender I/O v3.6.27",
		"version":"2.0"
	},
	"scene":0,
	"scenes":[
		{
			"name":"Scene",
			"nodes":[
				0
			]
		}
	],
	"nodes":[
		{
			"mesh":0,
			"name":"Text"
		}
	],
	"meshes":[
		{
			"name":"Text",
			"primitives":[
				{
					"attributes":{
						"POSITION":0,
						"NORMAL":1,
						"TEXCOORD_0":2
					},
					"indices":3
				}
			]
		}
	],
	"accessors":[
		{
			"bufferView":0,
			"componentType":5126,
			"count":827,
			"max":[
				2.0338289737701416,
				0,
				0.1546468436717987
			],
			"min":[
				0.03197025880217552,
				0,
				-0.565055787563324
			],
			"type":"VEC3"
		},
		{
			"bufferView":1,
			"componentType":5126,
			"count":827,
			"type":"VEC3"
		},
		{
			"bufferView":2,
			"componentType":5126,
			"count":827,
			"type":"VEC2"
		},
		{
			"bufferView":3,
			"componentType":5123,
			"count":2445,
			"type":"SCALAR"
		}
	],
	"bufferViews":[
		{
			"buffer":0,
			"byteLength":9924,
			"byteOffset":0,
			"target":34962
		},
		{
			"buffer":0,
			"byteLength":9924,
			"byteOffset":9924,
			"target":34962
		},
		{
			"buffer":0,
			"byteLength":6616,
			"byteOffset":19848,
			"target":34962
		},
		{
			"buffer":0,
			"byteLength":4890,
			"byteOffset":26464,
			"target":34963
		}
	],
	"buffers":[
		{
			"byteLength":31356,
			"uri":"font%20tieng%20viet.bin"
		}
	]
}
